<?xml version="1.0" standalone="no"?>
<!DOCTYPE svg PUBLIC "-//W3C//DTD SVG 20010904//EN"
 "http://www.w3.org/TR/2001/REC-SVG-20010904/DTD/svg10.dtd">
<svg version="1.0" xmlns="http://www.w3.org/2000/svg"
 width="260.000000pt" height="260.000000pt" viewBox="0 0 260.000000 260.000000"
 preserveAspectRatio="xMidYMid meet">

<g transform="translate(0.000000,260.000000) scale(0.100000,-0.100000)"
fill="#000000" stroke="none">
<path d="M1492 1933 c-19 -14 -48 -29 -65 -33 l-32 -8 29 -1 c18 -1 43 10 65
27 19 15 45 30 56 34 20 6 20 6 0 7 -11 0 -35 -11 -53 -26z"/>
<path d="M1608 1953 c6 -2 18 -2 25 0 6 3 1 5 -13 5 -14 0 -19 -2 -12 -5z"/>
<path d="M1681 1956 c2 -2 33 -6 69 -9 41 -4 56 -3 40 3 -25 8 -117 14 -109 6z"/>
<path d="M958 1943 c7 -3 16 -2 19 1 4 3 -2 6 -13 5 -11 0 -14 -3 -6 -6z"/>
<path d="M1015 1941 c17 -4 48 -20 69 -34 21 -15 48 -27 60 -26 18 1 17 2 -5
9 -15 4 -44 19 -65 34 -21 14 -50 26 -64 25 -23 -1 -23 -2 5 -8z"/>
<path d="M780 1930 c-14 -4 13 -5 60 -2 47 2 87 6 89 8 8 7 -124 2 -149 -6z"/>
<path d="M1255 1683 c-11 -3 -30 -9 -42 -14 l-23 -8 20 -33 c10 -18 26 -58 34
-88 8 -30 24 -84 36 -120 11 -36 25 -83 29 -105 5 -22 21 -85 34 -140 42 -168
79 -355 73 -370 -3 -8 -12 -15 -21 -15 -8 0 -15 -4 -15 -10 0 -5 -3 -9 -7 -8
-5 1 -27 -2 -50 -6 -23 -4 -48 -4 -55 0 -7 5 -20 9 -28 9 -45 4 -51 6 -44 16
4 8 -1 9 -17 4 -57 -18 -176 -45 -201 -45 -15 0 -38 -10 -50 -22 -41 -39 -72
-64 -64 -51 5 9 2 11 -8 7 -9 -3 -16 -14 -17 -23 -1 -9 -4 -5 -8 8 -9 35 -29
37 -33 5 -2 -16 -10 -28 -20 -30 -25 -3 -60 34 -56 61 2 13 -13 45 -35 79 -31
47 -42 56 -67 56 -26 0 -30 4 -35 38 -3 20 -10 53 -15 73 -6 20 -10 48 -10 63
0 14 -5 26 -11 26 -8 0 -8 4 0 14 9 10 8 16 -4 26 -8 7 -15 18 -14 24 0 6 3 5
6 -2 3 -9 10 -4 19 14 8 15 12 29 9 32 -3 3 -5 1 -5 -5 0 -5 -7 -10 -15 -10
-18 0 -19 9 -2 26 7 9 7 11 1 8 -7 -4 -15 0 -18 9 -4 12 -2 15 9 10 10 -4 15
1 15 14 0 13 -5 18 -15 14 -21 -8 -19 13 3 25 16 10 15 11 -5 17 -19 5 -20 9
-10 25 14 22 27 25 27 6 0 -7 9 -13 21 -14 20 -2 20 -2 -2 18 -12 11 -30 17
-40 14 -9 -3 -20 -1 -24 5 -3 5 -1 10 5 10 7 0 10 6 7 14 -8 20 15 36 40 30
18 -5 21 0 27 42 3 26 6 64 6 85 0 20 6 40 13 42 22 10 -25 7 -90 -4 -39 -7
-63 -16 -63 -24 0 -7 -17 4 -38 25 -41 41 -93 61 -157 59 -39 -1 -39 -2 10 -9
115 -17 203 -102 165 -160 -8 -12 -21 -3 -67 47 -67 73 -95 86 -150 71 -86
-23 -136 -92 -148 -204 -20 -187 72 -344 255 -432 92 -45 163 -62 175 -42 4 7
-1 13 -14 17 -19 5 -19 7 -6 17 12 9 7 11 -27 12 -111 3 -282 114 -334 217
-32 62 -43 182 -24 243 26 81 95 144 158 144 56 0 88 -25 133 -103 47 -80 58
-91 76 -75 7 6 13 9 13 6 0 -17 43 -312 51 -347 8 -35 7 -47 -5 -60 -12 -13
-13 -25 -6 -56 23 -96 10 -111 -66 -79 -21 9 -45 17 -54 19 -9 2 -56 23 -104
46 -200 99 -289 250 -272 462 9 124 64 205 162 241 21 8 33 15 26 15 -23 2
-78 -26 -114 -58 -71 -62 -101 -188 -79 -331 30 -201 142 -306 454 -430 92
-36 108 -46 113 -69 9 -38 34 -140 44 -181 14 -52 53 -64 167 -50 178 22 388
59 380 67 -2 2 -57 -6 -121 -17 -65 -11 -146 -20 -180 -20 -58 0 -64 2 -85 31
-13 17 -21 32 -19 34 1 2 19 8 38 13 28 8 15 9 -60 6 -62 -3 -86 -1 -70 5 38
13 159 39 215 46 113 14 318 59 459 100 32 9 73 18 90 20 17 1 47 5 66 9 30 6
27 4 -15 -14 -27 -12 -72 -30 -100 -40 l-50 -19 47 6 47 6 -13 -39 c-15 -46
-57 -70 -167 -99 -81 -21 -87 -31 -8 -14 48 10 115 9 209 -5 19 -3 9 1 -22 10
-32 9 -58 19 -58 23 0 4 21 12 46 19 62 17 144 52 144 63 0 10 149 0 173 -13
9 -5 22 -6 27 -3 5 3 36 1 67 -6 32 -6 76 -15 98 -19 32 -6 21 -8 -55 -10 -86
-2 -91 -3 -52 -12 46 -10 52 -21 22 -40 -11 -7 -20 -19 -20 -27 0 -12 -22 -13
-132 -7 -73 3 -149 9 -168 12 -19 4 -33 4 -30 1 9 -9 319 -47 388 -47 34 0 72
6 85 13 12 6 24 13 26 14 4 2 11 37 30 138 6 33 14 70 16 81 4 16 36 35 137
80 266 117 383 230 404 387 4 26 11 50 15 53 11 6 12 134 1 134 -4 0 -13 22
-19 50 -15 62 -60 129 -104 153 l-34 19 25 -21 c14 -11 28 -21 31 -21 15 0 61
-85 74 -137 41 -157 -2 -324 -111 -426 -76 -72 -251 -165 -345 -184 -32 -6
-32 -6 -26 28 16 90 17 101 5 118 -11 16 -10 48 5 182 27 239 25 228 46 222
15 -4 27 10 56 66 51 98 85 125 147 119 58 -6 109 -43 141 -101 18 -35 22 -58
22 -137 0 -84 -3 -102 -28 -152 -16 -32 -49 -76 -75 -99 -63 -56 -197 -119
-253 -119 -38 0 -41 -1 -25 -13 18 -13 18 -14 0 -21 -34 -13 5 -24 49 -14 115
26 261 138 310 239 66 133 56 311 -21 392 -79 83 -176 76 -240 -18 -43 -63
-67 -73 -78 -30 -9 36 34 88 101 121 56 27 107 29 170 9 18 -6 19 -6 2 5 -10
6 -42 14 -72 17 -71 7 -132 -16 -179 -68 -20 -21 -36 -33 -36 -25 0 15 -20 21
-110 31 -45 6 -53 5 -42 -6 6 -7 12 -34 12 -59 0 -25 5 -51 12 -58 9 -9 9 -15
0 -24 -18 -18 -15 -23 13 -26 23 -2 31 11 26 41 -1 5 8 5 20 2 20 -7 21 -5 15
21 -7 27 -7 28 7 9 18 -24 5 -57 -18 -49 -23 9 -18 -12 8 -29 21 -14 20 -14
-25 -11 -38 3 -48 0 -48 -12 0 -8 -4 -12 -10 -9 -5 3 -10 -1 -10 -9 0 -20 16
-21 23 -2 8 21 54 26 72 6 20 -22 19 -29 -5 -23 -16 4 -19 2 -14 -11 3 -9 10
-13 15 -10 5 3 9 0 9 -5 0 -6 -6 -11 -14 -11 -21 0 -31 -21 -15 -31 7 -4 10
-11 6 -15 -10 -10 -39 17 -33 33 9 24 -9 13 -21 -12 -6 -14 -7 -25 -3 -25 5 0
11 6 13 13 4 7 8 3 12 -10 4 -13 14 -23 21 -23 18 0 19 -56 2 -63 -9 -4 -10
-8 -3 -14 12 -10 14 -73 1 -66 -4 3 -6 -18 -4 -46 3 -29 1 -54 -4 -57 -4 -3
-8 -16 -8 -30 0 -14 -4 -22 -10 -19 -5 3 -10 1 -10 -4 0 -6 6 -11 13 -11 15
-1 -31 -40 -47 -40 -13 0 -46 -35 -46 -49 0 -5 -6 -14 -14 -20 -8 -6 -19 -33
-26 -59 -20 -81 -80 -111 -80 -40 -1 31 -2 32 -15 14 -8 -10 -16 -24 -18 -30
-3 -7 -11 -5 -24 7 -11 9 -24 17 -29 17 -5 0 -22 12 -38 27 -23 21 -39 27 -77
27 -26 0 -45 4 -43 8 3 4 0 8 -5 8 -6 0 -11 7 -11 16 0 8 5 12 10 9 6 -3 10
-1 10 4 0 6 -6 11 -12 11 -9 0 -27 63 -52 178 -22 97 -66 273 -98 390 -55 202
-57 215 -44 247 8 19 11 37 6 40 -14 8 -93 14 -115 8z m-735 -253 c-20 -13
-33 -13 -25 0 3 6 14 10 23 10 15 0 15 -2 2 -10z m32 -17 c-6 -2 -9 -10 -6
-15 4 -7 2 -8 -4 -4 -18 11 -14 26 6 25 10 0 12 -3 4 -6z m-32 -23 c0 -5 -5
-10 -11 -10 -5 0 -7 5 -4 10 3 6 8 10 11 10 2 0 4 -4 4 -10z m27 -382 c-3 -8
-6 -5 -6 6 -1 11 2 17 5 13 3 -3 4 -12 1 -19z m1510 -170 c-3 -7 -5 -2 -5 12
0 14 2 19 5 13 2 -7 2 -19 0 -25z m-1500 -40 c-3 -8 -6 -5 -6 6 -1 11 2 17 5
13 3 -3 4 -12 1 -19z m1444 -11 c-6 -8 -7 -18 -3 -22 4 -5 1 -5 -5 -1 -9 5
-13 -1 -13 -18 0 -23 -2 -25 -20 -14 -14 9 -16 14 -7 20 7 4 8 8 3 8 -5 0 -1
9 9 20 21 23 55 29 36 7z m-1371 -27 c0 -5 7 -10 16 -10 12 0 15 -6 10 -22 -3
-13 -6 -29 -6 -35 0 -7 -5 -13 -11 -13 -6 0 -8 7 -5 16 5 14 4 15 -9 4 -13
-11 -14 -10 -9 4 4 10 1 16 -7 16 -10 0 -10 3 -2 11 6 6 9 18 6 25 -3 8 0 14
6 14 6 0 11 -4 11 -10z"/>
<path d="M620 730 c0 -5 5 -10 11 -10 5 0 7 5 4 10 -3 6 -8 10 -11 10 -2 0 -4
-4 -4 -10z"/>
<path d="M1560 1626 c0 -18 28 -25 59 -14 16 6 27 5 31 -3 5 -6 16 -8 29 -4
12 4 21 2 21 -4 0 -6 16 -11 35 -11 28 0 35 -4 35 -20 0 -11 7 -20 15 -20 8 0
15 8 15 18 0 14 2 15 10 2 6 -10 10 -11 10 -2 0 6 3 11 8 11 4 -1 16 -1 27 0
l20 2 -20 8 c-11 5 -45 12 -75 16 -30 3 -71 10 -90 15 -78 19 -130 21 -130 6z"/>
<path d="M865 1600 c-71 -16 -141 -33 -155 -38 -22 -8 -19 -10 19 -9 27 1 46
-4 49 -11 6 -20 29 -14 35 9 5 18 11 21 39 16 18 -3 27 -3 20 0 -24 10 -1 22
33 16 19 -3 41 -1 48 5 7 7 23 10 35 7 14 -2 26 3 32 16 14 25 9 24 -155 -11z
m82 -6 c-3 -3 -12 -4 -19 -1 -8 3 -5 6 6 6 11 1 17 -2 13 -5z"/>
<path d="M1618 1603 c-10 -2 -18 -8 -18 -13 0 -4 9 -6 20 -3 11 3 20 9 20 14
0 5 -1 8 -2 8 -2 -1 -11 -3 -20 -6z"/>
<path d="M1562 1591 c2 -7 7 -12 11 -12 12 1 9 15 -3 20 -7 2 -11 -2 -8 -8z"/>
<path d="M990 1575 c0 -16 16 -20 24 -6 3 5 -1 11 -9 15 -9 3 -15 0 -15 -9z"/>
<path d="M1740 1559 c0 -5 5 -7 10 -4 6 3 10 8 10 11 0 2 -4 4 -10 4 -5 0 -10
-5 -10 -11z"/>
<path d="M825 1540 c4 -6 11 -8 16 -5 14 9 11 15 -7 15 -8 0 -12 -5 -9 -10z"/>
<path d="M1825 1540 c3 -5 8 -10 11 -10 2 0 4 5 4 10 0 6 -5 10 -11 10 -5 0
-7 -4 -4 -10z"/>
<path d="M1790 1490 c0 -5 5 -10 11 -10 5 0 7 5 4 10 -3 6 -8 10 -11 10 -2 0
-4 -4 -4 -10z"/>
<path d="M1520 1450 c0 -5 5 -10 11 -10 5 0 7 5 4 10 -3 6 -8 10 -11 10 -2 0
-4 -4 -4 -10z"/>
<path d="M530 1351 c0 -10 28 -41 36 -41 3 0 2 5 -1 10 -3 6 1 10 9 10 9 0 16
5 16 11 0 6 -6 9 -12 6 -7 -2 -21 0 -30 5 -11 5 -18 5 -18 -1z"/>
<path d="M2021 1336 c-9 -10 -8 -16 4 -26 10 -9 15 -9 15 -1 0 6 -6 11 -12 11
-8 0 -5 7 6 15 11 8 15 15 9 15 -6 0 -16 -6 -22 -14z"/>
<path d="M585 1310 c-3 -6 1 -7 9 -4 18 7 21 14 7 14 -6 0 -13 -4 -16 -10z"/>
<path d="M1520 1260 c0 -5 5 -10 11 -10 5 0 7 5 4 10 -3 6 -8 10 -11 10 -2 0
-4 -4 -4 -10z"/>
<path d="M583 1243 c4 -6 0 -13 -8 -17 -22 -8 -18 -25 5 -19 22 6 27 28 8 39
-6 4 -8 3 -5 -3z"/>
<path d="M1048 1243 c7 -3 16 -2 19 1 4 3 -2 6 -13 5 -11 0 -14 -3 -6 -6z"/>
<path d="M1990 1150 c0 -5 5 -10 10 -10 6 0 10 5 10 10 0 6 -4 10 -10 10 -5 0
-10 -4 -10 -10z"/>
<path d="M586 1131 c-4 -5 -2 -12 3 -15 5 -4 12 -2 15 3 4 5 2 12 -3 15 -5 4
-12 2 -15 -3z"/>
<path d="M600 1090 c0 -5 5 -10 10 -10 6 0 10 5 10 10 0 6 -4 10 -10 10 -5 0
-10 -4 -10 -10z"/>
<path d="M2011 1044 c0 -11 3 -14 6 -6 3 7 2 16 -1 19 -3 4 -6 -2 -5 -13z"/>
</g>
</svg>
